<?xml version="1.0" encoding="UTF-8" standalone="no"?>
<svg xmlns="http://www.w3.org/2000/svg" xmlns:xlink="http://www.w3.org/1999/xlink" width="1200" height="600" viewBox="0 0 1200 600">
  <defs>
    <!-- 그라데이션 정의 -->
    <linearGradient id="bg-gradient" x1="0%" y1="0%" x2="100%" y2="100%">
      <stop offset="0%" stop-color="#0a0a1a" />
      <stop offset="100%" stop-color="#1a1a3a" />
    </linearGradient>
    
    <!-- 회로 패턴 정의 -->
    <pattern id="circuit-pattern" width="100" height="100" patternUnits="userSpaceOnUse">
      <path d="M10,10 L90,10 M10,30 L50,30 L50,70 M90,30 L70,30 L70,90 M10,50 L30,50 L30,90 M10,70 L30,70 M10,90 L90,90" 
            stroke="#8c52ff20" stroke-width="1.5" fill="none" />
      <circle cx="10" cy="10" r="3" fill="#8c52ff40" />
      <circle cx="90" cy="10" r="3" fill="#8c52ff40" />
      <circle cx="50" cy="30" r="3" fill="#8c52ff40" />
      <circle cx="70" cy="30" r="3" fill="#8c52ff40" />
      <circle cx="30" cy="50" r="3" fill="#8c52ff40" />
      <circle cx="10" cy="70" r="3" fill="#8c52ff40" />
      <circle cx="30" cy="70" r="3" fill="#8c52ff40" />
      <circle cx="10" cy="90" r="3" fill="#8c52ff40" />
      <circle cx="90" cy="90" r="3" fill="#8c52ff40" />
    </pattern>
    
    <!-- 도트 패턴 정의 -->
    <pattern id="dot-pattern" width="20" height="20" patternUnits="userSpaceOnUse">
      <circle cx="10" cy="10" r="1" fill="#ffffff10" />
    </pattern>

    <!-- 애니메이션을 위한 필터 -->
    <filter id="glow" x="-50%" y="-50%" width="200%" height="200%">
      <feGaussianBlur stdDeviation="5" result="blur" />
      <feComposite in="SourceGraphic" in2="blur" operator="over" />
    </filter>

    <!-- 로고용 클리핑 패스 -->
    <clipPath id="logoClip1">
      <rect x="500" y="200" width="200" height="200" rx="10" />
    </clipPath>
    
    <!-- MCP 로고 클리핑 패스 정의 -->
    <clipPath id="8899cb8c21">
      <path d="M 2.375 1.710938 L 34.628906 1.710938 L 34.628906 28.078125 L 2.375 28.078125 Z M 2.375 1.710938 " clip-rule="nonzero"/>
    </clipPath>
    <clipPath id="60aa09016c">
      <path d="M 10.796875 9.417969 L 26.339844 9.417969 L 26.339844 26.441406 L 10.796875 26.441406 Z M 10.796875 9.417969 " clip-rule="nonzero"/>
    </clipPath>
  </defs>

  <!-- 배경 -->
  <rect width="100%" height="100%" fill="url(#bg-gradient)" />
  <rect width="100%" height="100%" fill="url(#dot-pattern)" />
  
  <!-- 회로 패턴 배경 적용 -->
  <rect width="100%" height="100%" fill="url(#circuit-pattern)" opacity="0.5" />
  
  <!-- 데이터 흐름을 나타내는 선들 -->
  <g stroke="#8c52ff30" stroke-width="1.5">
    <path d="M0,150 C300,50 600,250 1200,100" />
    <path d="M0,300 C200,200 400,400 1200,300" />
    <path d="M0,450 C400,350 800,550 1200,450" />
  </g>
  
  <!-- 추상적 기하학 모양 -->
  <g fill="#8c52ff15" stroke="#8c52ff40" stroke-width="1">
    <polygon points="100,100 150,50 200,100 150,150" />
    <polygon points="900,400 950,350 1000,400 950,450" />
    <circle cx="300" cy="450" r="50" />
    <circle cx="800" cy="150" r="70" />
  </g>
  
  <!-- 네트워크 노드와 연결선 -->
  <g>
    <circle cx="200" cy="200" r="5" fill="#8c52ff" />
    <circle cx="400" cy="300" r="5" fill="#8c52ff" />
    <circle cx="600" cy="150" r="5" fill="#8c52ff" />
    <circle cx="750" cy="350" r="5" fill="#8c52ff" />
    <circle cx="900" cy="250" r="5" fill="#8c52ff" />
    <line x1="200" y1="200" x2="400" y2="300" stroke="#8c52ff40" stroke-width="1.5" />
    <line x1="400" y1="300" x2="600" y2="150" stroke="#8c52ff40" stroke-width="1.5" />
    <line x1="600" y1="150" x2="750" y2="350" stroke="#8c52ff40" stroke-width="1.5" />
    <line x1="750" y1="350" x2="900" y2="250" stroke="#8c52ff40" stroke-width="1.5" />
  </g>
  
  <!-- 디지털 파형 -->
  <path d="M50,500 L100,500 L100,520 L150,520 L150,500 L200,500 L200,520 L250,520 L250,500 L300,500 L300,520 L350,520 L350,500 L400,500"
        stroke="#8c52ff60" stroke-width="2" fill="none" />
  
  <!-- 중앙에 MCP 로고 배치 -->
  <g transform="translate(550, 250)">
    <!-- logo-text.svg 내용 통합 -->
    <g transform="translate(-25, -25) scale(2)">
      <g>
        <path fill="#8c52ff" d="M 33.582031 9.007812 C 33.542969 12.40625 33.59375 24.160156 33.582031 26.714844 C 33.582031 26.8125 33.3125 27.035156 33.058594 27.035156 L 3.847656 27.035156 C 3.652344 27.035156 3.425781 26.863281 3.425781 26.714844 C 3.410156 23.621094 3.429688 11.804688 3.425781 9.015625 C 3.425781 8.660156 3.417969 8.417969 3.761719 8.417969 C 3.996094 8.414062 32.863281 8.398438 33.167969 8.417969 C 33.503906 8.4375 33.609375 8.664062 33.582031 9.007812 Z M 5.351562 3.355469 C 5.351562 3.023438 5.621094 2.75 5.953125 2.75 L 11.953125 2.75 C 13.792969 2.882812 15.125 4.113281 15.921875 4.851562 C 16.417969 5.308594 16.691406 5.558594 17.050781 5.558594 C 17.214844 5.558594 30.945312 5.558594 30.945312 5.558594 C 31.277344 5.558594 31.546875 5.832031 31.546875 6.164062 L 31.546875 7.378906 C 29.71875 7.378906 8.449219 7.378906 5.351562 7.375 Z M 34.625 9.035156 C 34.671875 8.394531 34.453125 8.011719 34.261719 7.804688 C 34.078125 7.609375 33.742188 7.375 33.136719 7.375 C 33.09375 7.375 32.910156 7.375 32.589844 7.375 L 32.589844 6.164062 C 32.589844 5.257812 31.851562 4.519531 30.945312 4.519531 C 30.945312 4.519531 17.507812 4.515625 17.125 4.519531 C 17.019531 4.445312 16.804688 4.25 16.628906 4.085938 C 15.734375 3.257812 14.234375 1.871094 11.988281 1.710938 L 5.953125 1.710938 C 5.046875 1.710938 4.308594 2.449219 4.308594 3.355469 L 4.308594 7.375 C 3.992188 7.375 3.796875 7.375 3.753906 7.375 C 3.253906 7.375 2.277344 7.394531 2.382812 9.015625 C 2.378906 11.945312 2.371094 23.625 2.382812 26.71875 C 2.386719 27.441406 3.074219 28.078125 3.847656 28.078125 L 33.058594 28.078125 C 33.796875 28.078125 34.621094 27.496094 34.625 26.71875 C 34.636719 24.160156 34.585938 12.410156 34.625 9.035156 " fill-opacity="1" fill-rule="nonzero"/>
        
        <path fill="#8c52ff" d="M 23.742188 21.222656 C 23.242188 21.222656 22.777344 21.371094 22.386719 21.628906 L 20.355469 19.597656 C 20.730469 19.085938 20.957031 18.460938 20.957031 17.78125 C 20.957031 17.738281 20.945312 17.703125 20.941406 17.664062 L 22.800781 17.289062 C 23.101562 17.867188 23.699219 18.269531 24.394531 18.269531 C 25.390625 18.269531 26.199219 17.460938 26.199219 16.46875 C 26.199219 15.472656 25.390625 14.664062 24.394531 14.664062 C 23.453125 14.664062 22.683594 15.398438 22.609375 16.324219 L 20.75 16.699219 C 20.53125 16.117188 20.152344 15.617188 19.65625 15.257812 L 20.132812 14.304688 C 20.238281 14.324219 20.351562 14.339844 20.464844 14.339844 C 21.457031 14.339844 22.265625 13.53125 22.265625 12.535156 C 22.265625 11.542969 21.457031 10.734375 20.464844 10.734375 C 19.46875 10.734375 18.660156 11.542969 18.660156 12.535156 C 18.660156 13.0625 18.890625 13.53125 19.253906 13.863281 L 18.773438 14.824219 C 18.476562 14.730469 18.167969 14.664062 17.839844 14.664062 C 17.300781 14.664062 16.796875 14.816406 16.351562 15.0625 L 15.113281 13.472656 C 15.480469 13.039062 15.710938 12.488281 15.710938 11.878906 C 15.710938 10.523438 14.609375 9.421875 13.253906 9.421875 C 11.898438 9.421875 10.796875 10.523438 10.796875 11.878906 C 10.796875 13.234375 11.898438 14.339844 13.253906 14.339844 C 13.644531 14.339844 14.007812 14.238281 14.335938 14.074219 L 15.570312 15.664062 C 15.050781 16.21875 14.726562 16.960938 14.726562 17.78125 C 14.726562 18.460938 14.953125 19.085938 15.328125 19.597656 L 13.46875 21.457031 C 13.210938 21.3125 12.914062 21.222656 12.597656 21.222656 C 11.605469 21.222656 10.796875 22.03125 10.796875 23.023438 C 10.796875 24.019531 11.605469 24.824219 12.597656 24.824219 C 13.59375 24.824219 14.398438 24.019531 14.398438 23.023438 C 14.398438 22.707031 14.308594 22.410156 14.164062 22.152344 L 16.023438 20.292969 C 16.535156 20.667969 17.160156 20.894531 17.839844 20.894531 C 18.523438 20.894531 19.148438 20.667969 19.660156 20.292969 L 21.691406 22.324219 C 21.433594 22.714844 21.28125 23.179688 21.28125 23.679688 C 21.28125 25.035156 22.386719 26.136719 23.742188 26.136719 C 25.097656 26.136719 26.199219 25.035156 26.199219 23.679688 C 26.199219 22.324219 25.097656 21.222656 23.742188 21.222656 Z M 23.742188 21.222656 " fill-opacity="1" fill-rule="nonzero"/>
      </g>
    </g>
  </g>
  
  <!-- 글로우 효과가 있는 원형 -->
  <circle cx="600" cy="300" r="150" fill="none" stroke="#8c52ff" stroke-width="2" opacity="0.3" />
  <circle cx="600" cy="300" r="180" fill="none" stroke="#8c52ff" stroke-width="1" opacity="0.2" />
  <circle cx="600" cy="300" r="210" fill="none" stroke="#8c52ff" stroke-width="0.5" opacity="0.1" />
  
  <!-- 움직이는 입자 효과 -->
  <g>
    <circle cx="450" cy="200" r="2" fill="#ffffff" opacity="0.6">
      <animate attributeName="cx" from="450" to="750" dur="10s" repeatCount="indefinite" />
      <animate attributeName="cy" from="200" to="400" dur="10s" repeatCount="indefinite" />
    </circle>
    <circle cx="750" cy="400" r="2" fill="#ffffff" opacity="0.6">
      <animate attributeName="cx" from="750" to="450" dur="10s" repeatCount="indefinite" />
      <animate attributeName="cy" from="400" to="200" dur="10s" repeatCount="indefinite" />
    </circle>
    <circle cx="550" cy="450" r="2" fill="#ffffff" opacity="0.6">
      <animate attributeName="cx" from="550" to="650" dur="8s" repeatCount="indefinite" />
      <animate attributeName="cy" from="450" to="150" dur="8s" repeatCount="indefinite" />
    </circle>
    <circle cx="650" cy="150" r="2" fill="#ffffff" opacity="0.6">
      <animate attributeName="cx" from="650" to="550" dur="8s" repeatCount="indefinite" />
      <animate attributeName="cy" from="150" to="450" dur="8s" repeatCount="indefinite" />
    </circle>
  </g>
</svg> 