<svg xmlns="http://www.w3.org/2000/svg" width="800" height="600" viewBox="0 0 800 600">
  <!-- 배경 그라디언트 -->
  <defs>
    <linearGradient id="bg-gradient" x1="0%" y1="0%" x2="100%" y2="100%">
      <stop offset="0%" stop-color="#0f172a" />
      <stop offset="100%" stop-color="#1e293b" />
    </linearGradient>
    
    <!-- 로고용 클리핑 패스 -->
    <clipPath id="logo-clip">
      <path d="M400,250 C400,200 360,160 310,160 C260,160 220,200 220,250 C220,300 260,340 310,340 C360,340 400,300 400,250 Z M380,250 C380,290 350,320 310,320 C270,320 240,290 240,250 C240,210 270,180 310,180 C350,180 380,210 380,250 Z" />
    </clipPath>
    
    <!-- 글로우 효과 -->
    <filter id="glow" x="-50%" y="-50%" width="200%" height="200%">
      <feGaussianBlur stdDeviation="15" result="blur" />
      <feComposite in="SourceGraphic" in2="blur" operator="over" />
    </filter>
  </defs>
  
  <!-- 메인 배경 -->
  <rect width="800" height="600" fill="url(#bg-gradient)" />
  
  <!-- 회로 패턴 -->
  <g opacity="0.2" stroke="#8b5cf6" stroke-width="1.5">
    <path d="M100,100 L300,100 L300,300 L500,300 L500,500 L700,500" fill="none" />
    <path d="M200,50 L200,200 L350,200 L350,350 L550,350 L550,550" fill="none" />
    <path d="M300,150 L500,150 L500,450 L650,450" fill="none" />
    <circle cx="300" cy="100" r="5" fill="#8b5cf6" />
    <circle cx="300" cy="300" r="5" fill="#8b5cf6" />
    <circle cx="500" cy="300" r="5" fill="#8b5cf6" />
    <circle cx="500" cy="500" r="5" fill="#8b5cf6" />
    <circle cx="200" cy="200" r="5" fill="#8b5cf6" />
    <circle cx="350" cy="200" r="5" fill="#8b5cf6" />
    <circle cx="350" cy="350" r="5" fill="#8b5cf6" />
    <circle cx="500" cy="150" r="5" fill="#8b5cf6" />
    <circle cx="500" cy="450" r="5" fill="#8b5cf6" />
  </g>
  
  <!-- 데이터 흐름 라인 -->
  <g opacity="0.2">
    <path d="M0,150 C250,150 300,450 550,450 L800,450" stroke="#8b5cf6" stroke-width="2" fill="none" />
    <path d="M0,250 C200,250 300,350 400,350 L800,350" stroke="#8b5cf6" stroke-width="2" fill="none" />
    <path d="M0,350 C150,350 200,200 350,200 L800,200" stroke="#8b5cf6" stroke-width="2" fill="none" />
  </g>
  
  <!-- 네트워크 노드 -->
  <g opacity="0.3">
    <circle cx="150" cy="150" r="8" fill="#8b5cf6" />
    <circle cx="350" cy="250" r="10" fill="#8b5cf6" />
    <circle cx="550" cy="350" r="12" fill="#8b5cf6" />
    <circle cx="250" cy="400" r="9" fill="#8b5cf6" />
    <circle cx="650" cy="200" r="11" fill="#8b5cf6" />
    <circle cx="450" cy="100" r="7" fill="#8b5cf6" />
  </g>
  
  <!-- MCP 로고 중앙 배치 -->
  <g transform="translate(400, 300)" filter="url(#glow)">
    <circle cx="0" cy="0" r="100" fill="#8b5cf6" opacity="0.2" />
    
    <!-- MCP 로고 -->
    <g transform="translate(-90, -90) scale(0.6)">
      <path d="M400,250 C400,200 360,160 310,160 C260,160 220,200 220,250 C220,300 260,340 310,340 C360,340 400,300 400,250 Z M380,250 C380,290 350,320 310,320 C270,320 240,290 240,250 C240,210 270,180 310,180 C350,180 380,210 380,250 Z" fill="#8b5cf6" />
      <circle cx="310" cy="250" r="60" fill="#8b5cf6" />
      <path d="M310,250 L370,250 M310,250 L310,190 M310,250 L265,295" stroke="white" stroke-width="10" />
    </g>
  </g>
  
  <!-- 추가 장식 -->
  <g opacity="0.1">
    <circle cx="100" cy="500" r="30" fill="#8b5cf6" />
    <circle cx="700" cy="100" r="40" fill="#8b5cf6" />
    <rect x="200" y="50" width="20" height="20" fill="#8b5cf6" />
    <rect x="600" y="500" width="30" height="30" fill="#8b5cf6" />
    <path d="M150,550 L200,500 L250,550 L300,500" stroke="#8b5cf6" stroke-width="2" fill="none" />
    <path d="M500,100 L550,50 L600,100 L650,50" stroke="#8b5cf6" stroke-width="2" fill="none" />
  </g>
</svg> 