<svg xmlns="http://www.w3.org/2000/svg" xmlns:xlink="http://www.w3.org/1999/xlink" width="50" zoomAndPan="magnify" viewBox="0 0 37.5 37.499999" height="50" preserveAspectRatio="xMidYMid meet" version="1.0"><path fill="#4e7896" d="M 13.855469 28.34375 C 13.855469 28.34375 12.441406 29.203125 14.835938 29.445312 C 17.71875 29.8125 19.253906 29.753906 22.441406 29.140625 C 23.085938 29.535156 23.757812 29.859375 24.464844 30.121094 C 17.292969 33.183594 8.210938 29.9375 13.855469 28.34375 Z M 12.9375 24.367188 C 12.9375 24.367188 11.402344 25.527344 13.796875 25.773438 C 16.925781 26.082031 19.378906 26.140625 23.609375 25.285156 C 24.027344 25.707031 24.519531 26.015625 25.082031 26.203125 C 16.433594 28.773438 6.742188 26.449219 12.9375 24.367188 Z M 29.867188 31.34375 C 29.867188 31.34375 30.910156 32.199219 28.703125 32.875 C 24.589844 34.101562 11.464844 34.464844 7.785156 32.875 C 6.496094 32.324219 8.949219 31.527344 9.738281 31.40625 C 10.535156 31.222656 10.964844 31.222656 10.964844 31.222656 C 9.550781 30.242188 1.578125 33.242188 6.917969 34.097656 C 21.578125 36.484375 33.660156 33.058594 29.855469 31.34375 Z M 14.519531 20.203125 C 14.519531 20.203125 7.832031 21.796875 12.125 22.34375 C 13.964844 22.589844 17.585938 22.527344 20.960938 22.285156 C 23.71875 22.039062 26.480469 21.550781 26.480469 21.550781 C 26.480469 21.550781 25.5 21.980469 24.824219 22.40625 C 18.015625 24.183594 4.949219 23.386719 8.691406 21.550781 C 11.882812 20.019531 14.519531 20.203125 14.519531 20.203125 Z M 26.480469 26.875 C 33.351562 23.324219 30.160156 19.898438 27.953125 20.324219 C 27.402344 20.449219 27.15625 20.570312 27.15625 20.570312 C 27.15625 20.570312 27.339844 20.203125 27.769531 20.082031 C 32.125 18.550781 35.558594 24.671875 26.355469 27.058594 C 26.355469 27.058594 26.417969 26.996094 26.480469 26.875 Z M 15.195312 36.546875 C 21.820312 36.976562 31.941406 36.300781 32.1875 33.179688 C 32.1875 33.179688 31.695312 34.40625 26.726562 35.320312 C 21.085938 36.363281 14.09375 36.238281 9.980469 35.566406 C 9.980469 35.566406 10.839844 36.300781 15.195312 36.546875 Z M 15.195312 36.546875 " fill-opacity="1" fill-rule="nonzero"/><path fill="#f58219" d="M 22.320312 0 C 22.320312 0 26.125 3.859375 18.703125 9.671875 C 12.753906 14.386719 17.351562 17.082031 18.703125 20.140625 C 15.207031 17.019531 12.691406 14.265625 14.410156 11.695312 C 16.921875 7.898438 23.855469 6.074219 22.320312 0 Z M 20.371094 17.570312 C 22.148438 19.589844 19.878906 21.425781 19.878906 21.425781 C 19.878906 21.425781 24.417969 19.101562 22.332031 16.222656 C 20.429688 13.46875 18.957031 12.121094 26.933594 7.53125 C 26.933594 7.53125 14.359375 10.652344 20.371094 17.570312 Z M 20.371094 17.570312 " fill-opacity="1" fill-rule="nonzero"/></svg>