<svg xmlns="http://www.w3.org/2000/svg" xmlns:xlink="http://www.w3.org/1999/xlink" width="50" zoomAndPan="magnify" viewBox="0 0 37.5 37.499999" height="50" preserveAspectRatio="xMidYMid meet" version="1.0"><defs><g/><clipPath id="8899cb8c21"><path d="M 2.375 1.710938 L 34.628906 1.710938 L 34.628906 28.078125 L 2.375 28.078125 Z M 2.375 1.710938 " clip-rule="nonzero"/></clipPath><clipPath id="60aa09016c"><path d="M 10.796875 9.417969 L 26.339844 9.417969 L 26.339844 26.441406 L 10.796875 26.441406 Z M 10.796875 9.417969 " clip-rule="nonzero"/></clipPath></defs><g clip-path="url(#8899cb8c21)"><path fill="#8c52ff" d="M 33.582031 9.007812 C 33.542969 12.40625 33.59375 24.160156 33.582031 26.714844 C 33.582031 26.8125 33.3125 27.035156 33.058594 27.035156 L 3.847656 27.035156 C 3.652344 27.035156 3.425781 26.863281 3.425781 26.714844 C 3.410156 23.621094 3.429688 11.804688 3.425781 9.015625 C 3.425781 8.660156 3.417969 8.417969 3.761719 8.417969 C 3.996094 8.414062 32.863281 8.398438 33.167969 8.417969 C 33.503906 8.4375 33.609375 8.664062 33.582031 9.007812 Z M 5.351562 3.355469 C 5.351562 3.023438 5.621094 2.75 5.953125 2.75 L 11.953125 2.75 C 13.792969 2.882812 15.125 4.113281 15.921875 4.851562 C 16.417969 5.308594 16.691406 5.558594 17.050781 5.558594 C 17.214844 5.558594 30.945312 5.558594 30.945312 5.558594 C 31.277344 5.558594 31.546875 5.832031 31.546875 6.164062 L 31.546875 7.378906 C 29.71875 7.378906 8.449219 7.378906 5.351562 7.375 Z M 34.625 9.035156 C 34.671875 8.394531 34.453125 8.011719 34.261719 7.804688 C 34.078125 7.609375 33.742188 7.375 33.136719 7.375 C 33.09375 7.375 32.910156 7.375 32.589844 7.375 L 32.589844 6.164062 C 32.589844 5.257812 31.851562 4.519531 30.945312 4.519531 C 30.945312 4.519531 17.507812 4.515625 17.125 4.519531 C 17.019531 4.445312 16.804688 4.25 16.628906 4.085938 C 15.734375 3.257812 14.234375 1.871094 11.988281 1.710938 L 5.953125 1.710938 C 5.046875 1.710938 4.308594 2.449219 4.308594 3.355469 L 4.308594 7.375 C 3.992188 7.375 3.796875 7.375 3.753906 7.375 C 3.253906 7.375 2.277344 7.394531 2.382812 9.015625 C 2.378906 11.945312 2.371094 23.625 2.382812 26.71875 C 2.386719 27.441406 3.074219 28.078125 3.847656 28.078125 L 33.058594 28.078125 C 33.796875 28.078125 34.621094 27.496094 34.625 26.71875 C 34.636719 24.160156 34.585938 12.410156 34.625 9.035156 " fill-opacity="1" fill-rule="nonzero"/></g><g clip-path="url(#60aa09016c)"><path fill="#8c52ff" d="M 23.742188 21.222656 C 23.242188 21.222656 22.777344 21.371094 22.386719 21.628906 L 20.355469 19.597656 C 20.730469 19.085938 20.957031 18.460938 20.957031 17.78125 C 20.957031 17.738281 20.945312 17.703125 20.941406 17.664062 L 22.800781 17.289062 C 23.101562 17.867188 23.699219 18.269531 24.394531 18.269531 C 25.390625 18.269531 26.199219 17.460938 26.199219 16.46875 C 26.199219 15.472656 25.390625 14.664062 24.394531 14.664062 C 23.453125 14.664062 22.683594 15.398438 22.609375 16.324219 L 20.75 16.699219 C 20.53125 16.117188 20.152344 15.617188 19.65625 15.257812 L 20.132812 14.304688 C 20.238281 14.324219 20.351562 14.339844 20.464844 14.339844 C 21.457031 14.339844 22.265625 13.53125 22.265625 12.535156 C 22.265625 11.542969 21.457031 10.734375 20.464844 10.734375 C 19.46875 10.734375 18.660156 11.542969 18.660156 12.535156 C 18.660156 13.0625 18.890625 13.53125 19.253906 13.863281 L 18.773438 14.824219 C 18.476562 14.730469 18.167969 14.664062 17.839844 14.664062 C 17.300781 14.664062 16.796875 14.816406 16.351562 15.0625 L 15.113281 13.472656 C 15.480469 13.039062 15.710938 12.488281 15.710938 11.878906 C 15.710938 10.523438 14.609375 9.421875 13.253906 9.421875 C 11.898438 9.421875 10.796875 10.523438 10.796875 11.878906 C 10.796875 13.234375 11.898438 14.339844 13.253906 14.339844 C 13.644531 14.339844 14.007812 14.238281 14.335938 14.074219 L 15.570312 15.664062 C 15.050781 16.21875 14.726562 16.960938 14.726562 17.78125 C 14.726562 18.460938 14.953125 19.085938 15.328125 19.597656 L 13.46875 21.457031 C 13.210938 21.3125 12.914062 21.222656 12.597656 21.222656 C 11.605469 21.222656 10.796875 22.03125 10.796875 23.023438 C 10.796875 24.019531 11.605469 24.824219 12.597656 24.824219 C 13.59375 24.824219 14.398438 24.019531 14.398438 23.023438 C 14.398438 22.707031 14.308594 22.410156 14.164062 22.152344 L 16.023438 20.292969 C 16.535156 20.667969 17.160156 20.894531 17.839844 20.894531 C 18.523438 20.894531 19.148438 20.667969 19.660156 20.292969 L 21.691406 22.324219 C 21.433594 22.714844 21.28125 23.179688 21.28125 23.679688 C 21.28125 25.035156 22.386719 26.136719 23.742188 26.136719 C 25.097656 26.136719 26.199219 25.035156 26.199219 23.679688 C 26.199219 22.324219 25.097656 21.222656 23.742188 21.222656 Z M 23.742188 21.222656 " fill-opacity="1" fill-rule="nonzero"/></g><g fill="#8c52ff" fill-opacity="1"><g transform="translate(3.586739, 32.535613)"><g><path d="M 2.875 0.5 L 3.984375 -2.15625 L 3.984375 0.890625 L 4.96875 0.890625 L 4.96875 -3.859375 L 3.890625 -3.859375 L 2.640625 -1.0625 L 1.390625 -3.859375 L 0.3125 -3.859375 L 0.3125 0.890625 L 1.296875 0.890625 L 1.296875 -2.15625 L 2.390625 0.5 Z M 2.875 0.5 "/></g></g></g><g fill="#8c52ff" fill-opacity="1"><g transform="translate(8.854121, 32.535613)"><g><path d="M 0.3125 -2.9375 L 0.3125 -0.078125 C 0.3125 0.253906 0.40625 0.5 0.59375 0.65625 C 0.789062 0.8125 1.0625 0.890625 1.40625 0.890625 L 2.890625 0.890625 C 3.234375 0.890625 3.503906 0.8125 3.703125 0.65625 C 3.890625 0.5 3.984375 0.253906 3.984375 -0.078125 L 3.984375 -0.640625 L 3.015625 -0.640625 L 3.015625 -0.21875 C 3.015625 0 2.90625 0.109375 2.6875 0.109375 L 1.609375 0.109375 C 1.398438 0.109375 1.296875 0 1.296875 -0.21875 L 1.296875 -2.8125 C 1.296875 -3.019531 1.398438 -3.125 1.609375 -3.125 L 2.6875 -3.125 C 2.90625 -3.125 3.015625 -3.019531 3.015625 -2.8125 L 3.015625 -2.375 L 3.984375 -2.375 L 3.984375 -2.9375 C 3.984375 -3.269531 3.890625 -3.519531 3.703125 -3.6875 C 3.503906 -3.84375 3.234375 -3.921875 2.890625 -3.921875 L 1.40625 -3.921875 C 1.0625 -3.921875 0.789062 -3.84375 0.59375 -3.6875 C 0.40625 -3.519531 0.3125 -3.269531 0.3125 -2.9375 Z M 0.3125 -2.9375 "/></g></g></g><g fill="#8c52ff" fill-opacity="1"><g transform="translate(13.150296, 32.535613)"><g><path d="M 3.984375 -1.6875 L 3.984375 -2.875 C 3.984375 -3.175781 3.898438 -3.421875 3.734375 -3.609375 C 3.546875 -3.773438 3.265625 -3.859375 2.890625 -3.859375 L 0.3125 -3.859375 L 0.3125 0.890625 L 1.296875 0.890625 L 1.296875 -0.703125 L 2.890625 -0.703125 C 3.265625 -0.703125 3.546875 -0.785156 3.734375 -0.953125 C 3.898438 -1.128906 3.984375 -1.375 3.984375 -1.6875 Z M 1.296875 -3.078125 L 2.6875 -3.078125 C 2.820312 -3.078125 2.910156 -3.050781 2.953125 -3 C 2.992188 -2.9375 3.015625 -2.851562 3.015625 -2.75 L 3.015625 -1.8125 C 3.015625 -1.695312 2.992188 -1.613281 2.953125 -1.5625 C 2.910156 -1.507812 2.820312 -1.484375 2.6875 -1.484375 L 1.296875 -1.484375 Z M 1.296875 -3.078125 "/></g></g></g><g fill="#8c52ff" fill-opacity="1"><g transform="translate(17.44647, 32.535613)"><g><path d="M 3.984375 -1.90625 L 3.984375 -2.875 C 3.984375 -3.175781 3.898438 -3.421875 3.734375 -3.609375 C 3.546875 -3.773438 3.265625 -3.859375 2.890625 -3.859375 L 0.3125 -3.859375 L 0.3125 0.890625 L 1.296875 0.890625 L 1.296875 -0.921875 L 1.984375 -0.921875 L 3.125 0.890625 L 4.140625 0.890625 L 3 -0.921875 C 3.34375 -0.941406 3.59375 -1.039062 3.75 -1.21875 C 3.90625 -1.382812 3.984375 -1.613281 3.984375 -1.90625 Z M 1.296875 -3.078125 L 2.6875 -3.078125 C 2.820312 -3.078125 2.910156 -3.050781 2.953125 -3 C 2.992188 -2.9375 3.015625 -2.851562 3.015625 -2.75 L 3.015625 -2.03125 C 3.015625 -1.925781 2.992188 -1.847656 2.953125 -1.796875 C 2.910156 -1.742188 2.820312 -1.71875 2.6875 -1.71875 L 1.296875 -1.71875 Z M 1.296875 -3.078125 "/></g></g></g><g fill="#8c52ff" fill-opacity="1"><g transform="translate(21.742645, 32.535613)"><g><path d="M 2.328125 0.1875 L 1.640625 0.1875 C 1.535156 0.1875 1.445312 0.148438 1.375 0.078125 C 1.300781 0.015625 1.265625 -0.0703125 1.265625 -0.1875 L 1.265625 -0.453125 L 3.015625 -0.453125 C 3.210938 -0.453125 3.359375 -0.507812 3.453125 -0.625 C 3.546875 -0.738281 3.59375 -0.875 3.59375 -1.03125 L 3.59375 -1.515625 C 3.59375 -1.816406 3.503906 -2.054688 3.328125 -2.234375 C 3.140625 -2.410156 2.863281 -2.5 2.5 -2.5 L 1.40625 -2.5 C 1.050781 -2.5 0.78125 -2.421875 0.59375 -2.265625 C 0.40625 -2.109375 0.3125 -1.859375 0.3125 -1.515625 L 0.3125 -0.09375 C 0.3125 0.25 0.40625 0.5 0.59375 0.65625 C 0.78125 0.8125 1.050781 0.890625 1.40625 0.890625 L 2.5 0.890625 C 2.84375 0.890625 3.113281 0.8125 3.3125 0.65625 C 3.5 0.5 3.59375 0.25 3.59375 -0.09375 L 3.59375 -0.21875 L 2.640625 -0.21875 C 2.640625 -0.0625 2.609375 0.046875 2.546875 0.109375 C 2.484375 0.160156 2.410156 0.1875 2.328125 0.1875 Z M 2.3125 -1.0625 L 1.578125 -1.0625 C 1.367188 -1.0625 1.265625 -1.164062 1.265625 -1.375 L 1.265625 -1.421875 C 1.265625 -1.554688 1.289062 -1.65625 1.34375 -1.71875 C 1.40625 -1.769531 1.503906 -1.796875 1.640625 -1.796875 L 2.265625 -1.796875 C 2.398438 -1.796875 2.492188 -1.769531 2.546875 -1.71875 C 2.609375 -1.65625 2.640625 -1.554688 2.640625 -1.421875 L 2.640625 -1.375 C 2.640625 -1.164062 2.53125 -1.0625 2.3125 -1.0625 Z M 2.3125 -1.0625 "/></g></g></g><g fill="#8c52ff" fill-opacity="1"><g transform="translate(25.627488, 32.535613)"><g><path d="M 3.59375 -0.375 L 3.59375 -1.515625 C 3.59375 -1.859375 3.5 -2.109375 3.3125 -2.265625 C 3.113281 -2.421875 2.84375 -2.5 2.5 -2.5 L 1.8125 -2.5 C 1.769531 -2.5 1.722656 -2.492188 1.671875 -2.484375 C 1.628906 -2.484375 1.582031 -2.472656 1.53125 -2.453125 C 1.476562 -2.441406 1.425781 -2.425781 1.375 -2.40625 C 1.332031 -2.382812 1.296875 -2.363281 1.265625 -2.34375 L 1.265625 -2.625 L 0.3125 -2.625 L 0.3125 2.21875 L 1.265625 2.21875 L 1.265625 0.453125 C 1.296875 0.472656 1.332031 0.488281 1.375 0.5 C 1.425781 0.519531 1.476562 0.539062 1.53125 0.5625 C 1.582031 0.582031 1.628906 0.59375 1.671875 0.59375 C 1.722656 0.601562 1.769531 0.609375 1.8125 0.609375 L 2.5 0.609375 C 2.84375 0.609375 3.113281 0.53125 3.3125 0.375 C 3.5 0.21875 3.59375 -0.03125 3.59375 -0.375 Z M 2.640625 -1.453125 L 2.640625 -0.4375 C 2.640625 -0.226562 2.53125 -0.125 2.3125 -0.125 L 1.578125 -0.125 C 1.367188 -0.125 1.265625 -0.226562 1.265625 -0.4375 L 1.265625 -1.453125 C 1.265625 -1.660156 1.367188 -1.765625 1.578125 -1.765625 L 2.3125 -1.765625 C 2.53125 -1.765625 2.640625 -1.660156 2.640625 -1.453125 Z M 2.640625 -1.453125 "/></g></g></g><g fill="#8c52ff" fill-opacity="1"><g transform="translate(29.52375, 32.535613)"><g><path d="M 2.640625 -1.5 L 2.640625 -0.109375 C 2.640625 0.00390625 2.617188 0.0820312 2.578125 0.125 C 2.523438 0.164062 2.457031 0.1875 2.375 0.1875 L 1.578125 0.1875 C 1.441406 0.1875 1.359375 0.164062 1.328125 0.125 C 1.285156 0.0703125 1.265625 -0.0078125 1.265625 -0.125 L 1.265625 -1.484375 C 1.265625 -1.585938 1.285156 -1.671875 1.328125 -1.734375 C 1.359375 -1.773438 1.441406 -1.796875 1.578125 -1.796875 L 2.375 -1.796875 C 2.457031 -1.796875 2.523438 -1.773438 2.578125 -1.734375 C 2.617188 -1.691406 2.640625 -1.613281 2.640625 -1.5 Z M 3.59375 -0.078125 L 3.59375 -1.515625 C 3.59375 -1.816406 3.503906 -2.0625 3.328125 -2.25 C 3.148438 -2.414062 2.875 -2.5 2.5 -2.5 L 1.40625 -2.5 C 1.019531 -2.5 0.742188 -2.414062 0.578125 -2.25 C 0.398438 -2.070312 0.3125 -1.828125 0.3125 -1.515625 L 0.3125 -0.078125 C 0.3125 0.222656 0.398438 0.460938 0.578125 0.640625 C 0.742188 0.804688 1.019531 0.890625 1.40625 0.890625 L 2.5 0.890625 C 2.875 0.890625 3.148438 0.804688 3.328125 0.640625 C 3.503906 0.453125 3.59375 0.210938 3.59375 -0.078125 Z M 3.59375 -0.078125 "/></g></g></g></svg>