<svg xmlns="http://www.w3.org/2000/svg" xmlns:xlink="http://www.w3.org/1999/xlink" width="50" zoomAndPan="magnify" viewBox="0 0 37.5 37.499999" height="50" preserveAspectRatio="xMidYMid meet" version="1.0"><defs><clipPath id="90d934c580"><path d="M 2.375 5.316406 L 34.628906 5.316406 L 34.628906 31.683594 L 2.375 31.683594 Z M 2.375 5.316406 " clip-rule="nonzero"/></clipPath><clipPath id="f483c36884"><path d="M 10.796875 13.027344 L 26.339844 13.027344 L 26.339844 30 L 10.796875 30 Z M 10.796875 13.027344 " clip-rule="nonzero"/></clipPath></defs><g clip-path="url(#90d934c580)"><path fill="#8c52ff" d="M 33.582031 12.617188 C 33.542969 16.011719 33.59375 27.765625 33.582031 30.324219 C 33.582031 30.421875 33.3125 30.644531 33.058594 30.644531 L 3.847656 30.644531 C 3.652344 30.644531 3.425781 30.472656 3.425781 30.320312 C 3.410156 27.230469 3.429688 15.414062 3.425781 12.621094 C 3.425781 12.269531 3.417969 12.023438 3.761719 12.023438 C 3.996094 12.023438 32.863281 12.003906 33.167969 12.023438 C 33.503906 12.042969 33.609375 12.273438 33.582031 12.617188 Z M 5.351562 6.960938 C 5.351562 6.628906 5.621094 6.359375 5.953125 6.359375 L 11.953125 6.355469 C 13.792969 6.492188 15.125 7.722656 15.921875 8.457031 C 16.417969 8.914062 16.691406 9.167969 17.050781 9.167969 C 17.214844 9.167969 30.945312 9.167969 30.945312 9.167969 C 31.277344 9.167969 31.546875 9.4375 31.546875 9.769531 L 31.546875 10.984375 C 29.71875 10.988281 8.449219 10.984375 5.351562 10.984375 Z M 34.625 12.644531 C 34.671875 12.003906 34.453125 11.621094 34.261719 11.410156 C 34.078125 11.214844 33.742188 10.980469 33.136719 10.980469 C 33.09375 10.984375 32.910156 10.984375 32.589844 10.984375 L 32.589844 9.769531 C 32.589844 8.863281 31.851562 8.125 30.945312 8.125 C 30.945312 8.125 17.507812 8.125 17.125 8.125 C 17.019531 8.054688 16.804688 7.855469 16.628906 7.695312 C 15.734375 6.867188 14.234375 5.480469 11.988281 5.316406 L 5.953125 5.316406 C 5.046875 5.316406 4.308594 6.054688 4.308594 6.960938 L 4.308594 10.984375 C 3.992188 10.984375 3.796875 10.984375 3.753906 10.980469 C 3.253906 10.980469 2.277344 11 2.382812 12.625 C 2.378906 15.554688 2.371094 27.230469 2.382812 30.328125 C 2.386719 31.050781 3.074219 31.683594 3.847656 31.683594 L 33.058594 31.683594 C 33.796875 31.683594 34.621094 31.101562 34.625 30.328125 C 34.636719 27.769531 34.585938 16.015625 34.625 12.644531 " fill-opacity="1" fill-rule="nonzero"/></g><g clip-path="url(#f483c36884)"><path fill="#8c52ff" d="M 23.742188 24.828125 C 23.242188 24.828125 22.777344 24.980469 22.386719 25.238281 L 20.355469 23.207031 C 20.730469 22.695312 20.957031 22.066406 20.957031 21.386719 C 20.957031 21.347656 20.945312 21.308594 20.941406 21.269531 L 22.800781 20.894531 C 23.101562 21.476562 23.699219 21.878906 24.394531 21.878906 C 25.390625 21.878906 26.199219 21.070312 26.199219 20.074219 C 26.199219 19.082031 25.390625 18.273438 24.394531 18.273438 C 23.453125 18.273438 22.683594 19.003906 22.609375 19.929688 L 20.75 20.304688 C 20.53125 19.722656 20.152344 19.222656 19.65625 18.867188 L 20.132812 17.914062 C 20.238281 17.933594 20.351562 17.945312 20.464844 17.945312 C 21.457031 17.945312 22.265625 17.136719 22.265625 16.144531 C 22.265625 15.148438 21.457031 14.339844 20.464844 14.339844 C 19.46875 14.339844 18.660156 15.148438 18.660156 16.144531 C 18.660156 16.671875 18.890625 17.140625 19.253906 17.46875 L 18.773438 18.429688 C 18.476562 18.339844 18.167969 18.273438 17.839844 18.273438 C 17.300781 18.273438 16.796875 18.425781 16.351562 18.671875 L 15.113281 17.078125 C 15.480469 16.648438 15.710938 16.097656 15.710938 15.488281 C 15.710938 14.132812 14.609375 13.03125 13.253906 13.03125 C 11.898438 13.03125 10.796875 14.132812 10.796875 15.488281 C 10.796875 16.84375 11.898438 17.945312 13.253906 17.945312 C 13.644531 17.945312 14.007812 17.847656 14.335938 17.683594 L 15.570312 19.269531 C 15.050781 19.828125 14.726562 20.566406 14.726562 21.386719 C 14.726562 22.066406 14.953125 22.695312 15.328125 23.207031 L 13.46875 25.0625 C 13.210938 24.917969 12.914062 24.828125 12.597656 24.828125 C 11.605469 24.828125 10.796875 25.636719 10.796875 26.632812 C 10.796875 27.625 11.605469 28.433594 12.597656 28.433594 C 13.59375 28.433594 14.398438 27.625 14.398438 26.632812 C 14.398438 26.3125 14.308594 26.019531 14.164062 25.757812 L 16.023438 23.902344 C 16.535156 24.273438 17.160156 24.5 17.839844 24.5 C 18.523438 24.5 19.148438 24.273438 19.660156 23.902344 L 21.691406 25.933594 C 21.433594 26.320312 21.28125 26.785156 21.28125 27.285156 C 21.28125 28.640625 22.386719 29.746094 23.742188 29.746094 C 25.097656 29.746094 26.199219 28.640625 26.199219 27.285156 C 26.199219 25.929688 25.097656 24.828125 23.742188 24.828125 Z M 23.742188 24.828125 " fill-opacity="1" fill-rule="nonzero"/></g></svg>