<svg xmlns="http://www.w3.org/2000/svg" xmlns:xlink="http://www.w3.org/1999/xlink" width="50" zoomAndPan="magnify" viewBox="0 0 37.5 37.499999" height="50" preserveAspectRatio="xMidYMid meet" version="1.0"><defs><clipPath id="49ad62c317"><path d="M 0 0 L 37.007812 0 L 37.007812 37.007812 L 0 37.007812 Z M 0 0 " clip-rule="nonzero"/></clipPath></defs><g clip-path="url(#49ad62c317)"><path fill="#007acc" d="M 0 37.007812 L 37.007812 37.007812 L 37.007812 0 L 0 0 Z M 0 37.007812 " fill-opacity="1" fill-rule="nonzero"/></g><path fill="#ffffff" d="M 8.183594 18.625 L 8.171875 20.140625 L 12.988281 20.140625 L 12.988281 33.828125 L 16.394531 33.828125 L 16.394531 20.140625 L 21.210938 20.140625 L 21.210938 18.65625 C 21.210938 17.832031 21.191406 17.144531 21.167969 17.128906 C 21.152344 17.105469 18.222656 17.09375 14.667969 17.097656 L 8.199219 17.117188 Z M 8.183594 18.625 " fill-opacity="1" fill-rule="nonzero"/><path fill="#ffffff" d="M 29.859375 17.074219 C 30.800781 17.308594 31.519531 17.726562 32.175781 18.40625 C 32.515625 18.769531 33.019531 19.433594 33.0625 19.59375 C 33.074219 19.640625 31.464844 20.722656 30.488281 21.328125 C 30.453125 21.351562 30.3125 21.195312 30.15625 20.960938 C 29.679688 20.269531 29.179688 19.96875 28.414062 19.917969 C 27.292969 19.839844 26.570312 20.425781 26.578125 21.410156 C 26.578125 21.695312 26.617188 21.867188 26.734375 22.101562 C 26.984375 22.613281 27.441406 22.917969 28.878906 23.542969 C 31.53125 24.679688 32.664062 25.433594 33.367188 26.5 C 34.15625 27.695312 34.332031 29.597656 33.796875 31.011719 C 33.210938 32.550781 31.75 33.597656 29.703125 33.945312 C 29.066406 34.054688 27.5625 34.039062 26.882812 33.914062 C 25.394531 33.648438 23.988281 32.914062 23.117188 31.953125 C 22.777344 31.578125 22.113281 30.59375 22.152344 30.523438 C 22.171875 30.5 22.324219 30.40625 22.496094 30.308594 C 22.660156 30.214844 23.28125 29.855469 23.871094 29.515625 L 24.933594 28.898438 L 25.15625 29.226562 C 25.464844 29.703125 26.148438 30.355469 26.558594 30.574219 C 27.742188 31.195312 29.359375 31.105469 30.160156 30.390625 C 30.5 30.078125 30.640625 29.753906 30.640625 29.28125 C 30.640625 28.851562 30.589844 28.664062 30.367188 28.339844 C 30.078125 27.929688 29.492188 27.582031 27.824219 26.859375 C 25.914062 26.039062 25.089844 25.527344 24.339844 24.714844 C 23.902344 24.246094 23.492188 23.492188 23.324219 22.863281 C 23.179688 22.34375 23.144531 21.03125 23.257812 20.503906 C 23.652344 18.660156 25.042969 17.371094 27.050781 16.992188 C 27.703125 16.867188 29.222656 16.914062 29.859375 17.074219 Z M 29.859375 17.074219 " fill-opacity="1" fill-rule="nonzero"/></svg>